<?xml version="1.0" encoding="UTF-8" standalone="no"?>
<svg
   xmlns:dc="http://purl.org/dc/elements/1.1/"
   xmlns:cc="http://creativecommons.org/ns#"
   xmlns:rdf="http://www.w3.org/1999/02/22-rdf-syntax-ns#"
   xmlns:svg="http://www.w3.org/2000/svg"
   xmlns="http://www.w3.org/2000/svg"
   viewBox="0 0 238.10667 139.84"
   height="139.84"
   width="238.10667"
   xml:space="preserve"
   id="svg2"
   version="1.1"><metadata
     id="metadata8"><rdf:RDF><cc:Work
         rdf:about=""><dc:format>image/svg+xml</dc:format><dc:type
           rdf:resource="http://purl.org/dc/dcmitype/StillImage" /></cc:Work></rdf:RDF></metadata><defs
     id="defs6"><clipPath
       id="clipPath20"
       clipPathUnits="userSpaceOnUse"><path
         id="path18"
         d="m 892.93,29.2617 c -26.59,0 -51.989,2.7188 -71.532,7.668 C 793.406,44.2305 143.188,214.07 121.035,220.238 24.0195,247.277 24.0195,355.145 24.0195,390.609 v 259.868 c 0,37.98 0,117.066 70.7149,150.07 38.7886,18.109 611.4066,178.797 725.8086,210.833 l 0.609,0.16 c 19.61,5.17 45.102,8.02 71.778,8.02 26.652,0 52.14,-2.85 71.765,-8.02 7.059,-1.93 675.175,-183.77 697.025,-189.677 100.12,-27.129 100.09,-135.238 100.09,-170.769 V 390.789 c 0,-38.363 0,-109.707 -66.77,-148.594 -6.05,-3.539 -24.5,-14.285 -729.935,-205.1052 l -0.644,-0.1601 C 944.906,31.9805 919.5,29.2617 892.93,29.2617 Z" /></clipPath><linearGradient
       id="linearGradient42"
       spreadMethod="pad"
       gradientTransform="matrix(1364.19,1364.19,1364.19,-1364.19,210.818,-157.69)"
       gradientUnits="userSpaceOnUse"
       y2="0"
       x2="1"
       y1="0"
       x1="0"><stop
         id="stop22"
         offset="0"
         style="stop-opacity:1;stop-color:#706d6e" /><stop
         id="stop24"
         offset="0.0934066"
         style="stop-opacity:1;stop-color:#706d6e" /><stop
         id="stop26"
         offset="0.159341"
         style="stop-opacity:1;stop-color:#bdbcbc" /><stop
         id="stop28"
         offset="0.236264"
         style="stop-opacity:1;stop-color:#e9e9e9" /><stop
         id="stop30"
         offset="0.43956"
         style="stop-opacity:1;stop-color:#706d6e" /><stop
         id="stop32"
         offset="0.604396"
         style="stop-opacity:1;stop-color:#e9e9e9" /><stop
         id="stop34"
         offset="0.791209"
         style="stop-opacity:1;stop-color:#bdbcbc" /><stop
         id="stop36"
         offset="0.945055"
         style="stop-opacity:1;stop-color:#706d6e" /><stop
         id="stop38"
         offset="0.94912096"
         style="stop-opacity:1;stop-color:#706d6e" /><stop
         id="stop40"
         offset="1"
         style="stop-opacity:1;stop-color:#706d6e" /></linearGradient></defs><g
     transform="matrix(1.3333333,0,0,-1.3333333,0,139.84)"
     id="g10"><g
       transform="scale(0.1)"
       id="g12"><g
         id="g14"><g
           clip-path="url(#clipPath20)"
           id="g16"><path
             id="path44"
             style="fill:url(#linearGradient42);fill-opacity:1;fill-rule:nonzero;stroke:none"
             d="m 892.93,29.2617 c -26.59,0 -51.989,2.7188 -71.532,7.668 C 793.406,44.2305 143.188,214.07 121.035,220.238 24.0195,247.277 24.0195,355.145 24.0195,390.609 v 259.868 c 0,37.98 0,117.066 70.7149,150.07 38.7886,18.109 611.4066,178.797 725.8086,210.833 l 0.609,0.16 c 19.61,5.17 45.102,8.02 71.778,8.02 26.652,0 52.14,-2.85 71.765,-8.02 7.059,-1.93 675.175,-183.77 697.025,-189.677 100.12,-27.129 100.09,-135.238 100.09,-170.769 V 390.789 c 0,-38.363 0,-109.707 -66.77,-148.594 -6.05,-3.539 -24.5,-14.285 -729.935,-205.1052 l -0.644,-0.1601 C 944.906,31.9805 919.5,29.2617 892.93,29.2617" /></g></g><path
         id="path46"
         style="fill:#e41d25;fill-opacity:1;fill-rule:nonzero;stroke:none"
         d="m 1720.82,390.789 c 0,-34.894 0,-86.16 -46.41,-113.18 C 1654.6,266.07 954.402,76.6875 954.402,76.6875 c -33.812,-8.5781 -89.144,-8.5781 -122.972,0 0,0 -677.297,176.8945 -699.383,183.0395 -67.1603,18.726 -67.0353,96.168 -67.0353,131.062 v 259.688 c 0,34.863 0,90.953 47.0663,112.933 37.699,17.594 719.512,208.485 719.512,208.485 33.726,8.886 88.93,8.886 122.656,0 0,0 674.634,-183.637 696.754,-189.606 70.26,-19.039 69.82,-96.949 69.82,-131.812 V 390.789" /><path
         id="path48"
         style="fill:#ffffff;fill-opacity:1;fill-rule:nonzero;stroke:none"
         d="m 393.223,615.594 c 3.785,-3.215 6.465,-8.614 8.039,-16.188 -0.449,-8.148 49.015,-2.25 59.593,-1.176 10.575,1.071 20.829,2.536 30.762,4.395 9.93,1.855 18.438,4.93 25.512,9.215 7.07,4.289 10.609,11.363 10.609,21.223 0,13.003 -2.359,24.617 -7.074,34.835 -4.715,10.215 -11.039,19.258 -18.973,27.118 -7.929,7.859 -17.078,14.648 -27.437,20.367 -10.363,5.715 -21.117,10.43 -32.266,14.148 -11.144,3.715 -22.398,6.43 -33.761,8.145 -11.364,1.715 -22.047,2.574 -32.047,2.574 -19.008,0 -37.375,-3.145 -55.094,-9.434 -17.723,-6.289 -33.441,-15.003 -47.16,-26.152 -13.723,-11.148 -24.692,-24.476 -32.906,-39.98 -8.223,-15.508 -12.329,-32.621 -12.329,-51.34 0,-10.438 1.286,-20.942 3.86,-31.516 -7.289,-0.285 -15.188,-0.894 -23.688,-1.82 -8.504,-0.934 -16.328,-2.754 -23.472,-5.465 -7.149,-2.719 -13.223,-6.648 -18.223,-11.793 -5.004,-5.145 -7.793,-12.148 -8.359,-21.008 1.714,-7.578 3.175,-17.293 4.394,-29.152 1.211,-11.867 3,-23.477 5.36,-34.836 2.355,-11.363 5.925,-21.152 10.714,-29.371 4.789,-8.219 11.754,-12.324 20.903,-12.324 6.433,0 12.933,1.32 19.508,3.964 6.574,2.645 12.933,4.536 19.078,5.68 2.574,-48.875 10.293,-98.039 23.152,-147.484 8.289,-2.715 16.648,-4.074 25.082,-4.074 7.574,0 15.328,0.75 23.262,2.25 7.929,1.5 15.789,3.183 23.578,5.039 7.789,1.859 15.613,3.679 23.473,5.464 7.859,1.79 15.578,2.825 23.152,3.11 1,-0.285 1.855,-0.5 2.574,-0.645 0.715,-0.14 1.5,-0.215 2.356,-0.215 2.574,0 4.75,0.965 6.539,2.895 1.785,1.93 2.679,4.18 2.679,6.754 0,1.715 -0.429,3.504 -1.285,5.359 -3,23.008 -6.824,45.66 -11.469,67.957 -4.644,22.293 -8.613,44.801 -11.898,67.524 4.719,3.004 10.644,4.859 17.793,5.574 7.144,0.715 13.969,1.57 20.473,2.574 6.5,0.996 12.074,2.965 16.722,5.895 4.641,2.925 6.965,8.109 6.965,15.543 -2.859,13.429 -5.68,26.867 -8.469,40.3 -2.785,13.434 -8.09,33.274 -10.8,46.422 -0.575,7.719 -41.743,-0.425 -48.723,9.746 -3,4.715 -1.461,10.145 -1.461,15.434 0,5.855 1.926,10.535 5.785,14.039 3.859,3.5 8.074,5.254 12.649,5.254 4.429,0 8.539,-1.609 12.328,-4.824 z m 183.113,-64.77 c -8.793,-2.73 -17.262,-6.937 -25.406,-12.617 -1.285,2.676 -1.985,5.648 -2.09,8.922 -0.106,3.269 -0.27,6.375 -0.481,9.324 -0.214,2.945 -0.992,5.52 -2.332,7.719 -1.339,2.195 -3.726,3.398 -7.156,3.617 -8.789,-0.644 -17.793,-1.184 -27.008,-1.609 -9.218,-0.43 -18.386,-1.313 -27.496,-2.653 -9.109,-1.339 -17.953,-3.324 -26.527,-5.949 -8.574,-2.629 -8.461,-4.902 -15.961,-9.937 2.894,-18.868 5.297,-37.676 6.961,-57.075 1.66,-19.402 2.461,-39.015 4.176,-58.468 1.711,-19.453 1.281,-43.567 4.175,-62.645 2.895,-19.078 2.309,-34.687 7.563,-53.121 2.574,-0.426 5.172,-0.777 7.797,-1.047 2.625,-0.265 5.277,-0.398 7.961,-0.398 6.32,0 12.726,0.508 19.211,1.527 6.484,1.02 13.023,2.117 19.617,3.293 6.59,1.18 13.234,2.387 19.933,3.617 6.7,1.235 13.321,2.063 19.86,2.492 1.82,0 2.945,0.887 3.375,2.653 0.426,1.769 0.64,3.402 0.64,4.906 0,2.035 -0.425,4.422 -1.285,7.152 -0.859,2.735 -1.797,5.735 -2.812,9.004 -1.02,3.27 -1.957,6.727 -2.813,10.371 -0.859,3.645 -1.289,7.34 -1.289,11.094 0,9.004 0.16,18.649 0.485,28.942 0.32,10.289 1.308,19.773 2.972,28.457 1.66,8.679 4.125,15.859 7.399,21.543 3.265,5.679 7.847,8.523 13.746,8.523 5.789,0 10.824,-4.262 15.113,-12.785 4.285,-8.52 8.035,-19.801 11.254,-33.84 1.605,-1.609 4.715,-2.414 9.324,-2.414 8.574,2.25 17.391,4.367 26.449,6.351 9.055,1.981 17.977,4.235 26.77,6.75 8.785,2.52 17.363,5.524 25.723,9.004 8.363,3.485 16.367,60.43 -12.942,90.52 -10.668,10.129 -22.804,18.141 -36.418,24.035 -13.613,5.895 -27.437,8.844 -41.48,8.844 -9.219,0 -18.223,-1.367 -27.008,-4.102 z M 808.738,321.559 c 16.344,1.765 32.719,2.652 49.117,2.652 0.965,0 -4.449,172.191 -6.914,172.191 -9.003,0 -17.445,0.266 -25.32,0.805 -7.879,0.535 -15.894,1.125 -24.035,1.77 -8.148,0.64 -16.723,1.257 -25.727,1.847 -9.004,0.59 -19.082,0.883 -30.226,0.883 -2.469,0 -5.172,-0.105 -8.117,-0.32 -2.95,-0.215 -5.739,-0.723 -8.364,-1.528 -2.625,-0.804 -6.617,-171.39 -3.937,-173.48 2.676,-2.09 5.922,-3.695 9.726,-4.82 3.805,-1.129 7.903,-1.852 12.301,-2.172 4.395,-0.321 8.465,-0.485 12.219,-0.485 16.504,0 32.93,0.887 49.277,2.657 z m -70.179,212.949 c 4.074,-4.61 9.351,-8.496 15.836,-11.656 6.484,-3.164 13.718,-5.524 21.707,-7.075 7.984,-1.554 15.941,-2.332 23.875,-2.332 6.324,0 13.101,0.618 20.336,1.848 7.238,1.23 13.882,3.055 19.937,5.469 6.055,2.41 11.066,5.437 15.035,9.082 3.961,3.644 5.945,7.879 5.945,12.703 0,5.465 -2.359,10.394 -7.074,14.793 -4.715,4.39 -10.691,8.062 -17.926,11.012 -7.234,2.945 -15.3,5.25 -24.195,6.914 -8.898,1.66 -17.422,2.492 -25.562,2.492 -5.684,0 -11.715,-0.563 -18.09,-1.692 -6.379,-1.125 -12.195,-2.785 -17.445,-4.98 -5.25,-2.199 -9.645,-4.984 -13.184,-8.363 -3.535,-3.375 -5.305,-7.477 -5.305,-12.297 0,-6.004 2.035,-11.313 6.11,-15.918 z m 252.019,-99.844 c 11.632,0.75 23.092,1.5 34.402,2.25 11.31,0.75 22.19,1.527 32.64,2.332 10.45,0.805 19.86,1.207 28.22,1.207 2.78,0 4.74,0.938 5.87,2.813 1.12,1.875 1.69,3.992 1.69,6.351 -2.04,11.899 -4.1,23.496 -6.19,34.809 -2.09,11.304 -5.18,22.535 -9.25,33.683 -3.32,8.786 -8.12,16.102 -14.39,21.946 -6.27,5.84 -13.34,10.449 -21.22,13.828 -7.88,3.375 -16.22,5.785 -25,7.234 -8.79,1.446 -17.475,2.168 -26.049,2.168 -16.508,0 -32.102,-3.805 -46.785,-11.414 -14.688,-7.613 -27.575,-17.66 -38.668,-30.144 -11.094,-12.489 -19.883,-26.747 -26.368,-42.77 -6.488,-16.023 -6.054,-30.836 -6.054,-47.555 0,-14.043 7.433,-39.129 13.918,-52.203 6.484,-13.082 7.14,-14.633 17.699,-24.601 10.559,-9.969 22.645,-17.985 36.258,-24.035 13.609,-6.059 27.543,-9.086 41.801,-9.086 10.289,0 20.768,1.046 31.428,3.136 10.67,2.09 20.66,5.387 29.99,9.887 9.32,4.5 17.6,10.371 24.84,17.605 7.23,7.235 12.73,16.051 16.48,26.45 0,2.57 -1.34,5.086 -4.02,7.554 -7.5,3.965 -14.04,7.903 -19.62,11.817 -5.57,3.914 -10.93,7.531 -16.07,10.851 -5.15,3.325 -10.53,6.297 -16.16,8.926 -5.63,2.625 -12.14,4.582 -19.54,5.867 -1.6,-1.504 -3.51,-3.886 -5.7,-7.152 -2.2,-3.273 -4.67,-6.57 -7.398,-9.891 -2.734,-3.324 -5.789,-6.246 -9.168,-8.761 -3.375,-2.52 -7.152,-3.778 -11.332,-3.778 -4.18,0 -7.637,0.723 -10.371,2.168 -2.734,1.449 -4.984,3.379 -6.75,5.789 -1.77,2.414 -3.031,5.145 -3.781,8.2 -0.75,3.054 -1.125,6.242 -1.125,9.566 0,2.574 0.16,5.066 0.48,7.477 0.324,2.414 0.91,4.527 1.77,6.351 10.718,0 21.89,0.375 33.523,1.125 z m -30.789,47.832 c -5.359,2.625 -8.039,6.832 -8.039,12.621 0,3.43 1.258,6.86 3.777,10.289 2.52,3.43 5.762,6.403 9.727,8.922 3.965,2.52 8.305,4.555 13.023,6.11 4.715,1.554 9.27,2.332 13.668,2.332 2.676,0 5.387,-0.266 8.115,-0.801 2.74,-0.539 5.25,-1.477 7.56,-2.817 2.3,-1.339 4.15,-3.109 5.55,-5.304 1.39,-2.2 2.09,-4.852 2.09,-7.957 0,-4.184 -1.16,-7.961 -3.46,-11.336 -2.31,-3.379 -5.25,-6.219 -8.84,-8.524 -3.593,-2.304 -7.64,-4.125 -12.14,-5.465 -4.504,-1.339 -9.058,-2.011 -13.668,-2.011 -6.218,0 -12.004,1.312 -17.363,3.941 z M 1241.31,368.824 c 3.43,-5.625 5.15,-12.726 5.15,-21.301 0,-9.003 -1.77,-18.007 -5.31,-27.011 1.5,-2.785 3.8,-4.18 6.91,-4.18 15.12,1.504 30.31,2.356 45.58,2.57 15.28,0.215 30.47,0.325 45.58,0.325 2.04,0 -0.93,149.738 -7.63,164.636 -6.7,14.895 -15.87,26.367 -27.5,34.407 -11.63,8.039 -26.66,12.058 -45.09,12.058 -7.94,0 -16.08,-1.262 -24.44,-3.777 -8.36,-2.524 -17.15,-6.516 -26.37,-11.981 0,1.715 0.05,3.618 0.16,5.707 0.11,2.09 0.16,4.207 0.16,6.352 0,4.394 -0.83,8.414 -2.49,12.059 -1.66,3.644 -5.55,5.464 -11.66,5.464 -15.11,-0.214 -55.62,-4.652 -70.36,-5.558 -14.74,-0.914 -8.52,-229.805 0.7,-229 9.21,0.804 23.63,0.949 32.85,1.914 9.21,0.965 18.38,1.847 27.49,2.652 9.11,0.805 18.27,1.207 27.49,1.207 2.57,0 4.32,0.805 5.23,2.41 0.91,1.61 1.47,3.43 1.69,5.469 -4.83,11.145 -7.24,21.758 -7.24,31.832 0,6.645 1.21,12.004 3.62,16.078 2.41,4.074 5.92,6.11 10.53,6.11 6.54,0 11.52,-2.813 14.95,-8.442 z m 242.21,144.864 c -9.7,2.515 -19.8,3.777 -30.3,3.777 -12.54,0 -24.9,-1.875 -37.06,-5.629 -12.17,-3.75 -23.07,-9.352 -32.72,-16.801 -9.65,-7.449 -17.45,-16.668 -23.39,-27.652 -5.95,-10.988 -8.93,-23.715 -8.93,-38.184 0,-15.758 3.3,-30.281 9.89,-43.57 6.59,-13.293 15.22,-24.707 25.89,-34.246 10.66,-9.543 22.8,-16.965 36.41,-22.27 13.61,-5.304 27.55,-7.957 41.8,-7.957 3.97,0 7.8,0.184 11.5,0.563 3.7,0.375 7.31,0.988 10.85,1.847 0.22,-1.179 0.43,-2.574 0.64,-4.179 0.22,-1.61 0.59,-3.137 1.13,-4.582 0.54,-1.45 1.37,-2.653 2.49,-3.617 1.13,-0.965 2.66,-1.45 4.58,-1.45 14.47,-1.605 28.7,-2.625 42.69,-3.054 13.99,-0.426 28.22,-0.641 42.69,-0.641 1.93,0 3.99,0.105 6.19,0.32 2.19,0.219 4.23,0.723 6.11,1.528 1.87,0.804 3.35,2.011 4.42,3.617 1.07,1.609 1.61,3.969 1.61,7.074 0,10.074 0.5,20.231 1.52,30.469 1.02,10.234 2.07,20.441 3.14,30.629 1.07,10.179 2.17,20.441 3.29,30.789 1.13,10.34 1.8,20.66 2.01,30.949 3.11,25.187 6.3,50.297 9.57,75.324 3.27,25.024 6.24,50.403 8.92,76.129 -0.21,3.32 -0.72,6.242 -1.52,8.762 -0.81,2.515 -2.87,4.097 -6.19,4.742 -10.72,1.93 -21.47,3.297 -32.24,4.102 -10.77,0.8 -21.52,1.203 -32.24,1.203 h -22.99 c -2.46,0 -4.79,-0.457 -6.99,-1.367 -2.2,-0.911 -3.3,-2.868 -3.3,-5.868 -2.78,-17.148 -5.17,-34.164 -7.15,-51.047 -1.99,-16.882 -3.78,-33.898 -5.39,-51.046 -8.25,5.035 -17.23,8.816 -26.93,11.336 z m -11.65,-33.282 c 3.85,-1.019 7.42,-2.492 10.69,-4.422 3.27,-1.929 5.95,-4.504 8.04,-7.718 2.09,-3.215 3.13,-6.914 3.13,-11.094 0,-5.465 -1.26,-10.289 -3.78,-14.469 -2.52,-4.18 -5.76,-7.637 -9.72,-10.371 -3.97,-2.73 -8.42,-4.82 -13.35,-6.269 -4.93,-1.446 -9.81,-2.172 -14.63,-2.172 -3.97,0 -8.09,0.566 -12.38,1.691 -4.29,1.125 -8.23,2.731 -11.82,4.82 -3.59,2.09 -6.59,4.77 -9,8.039 -2.41,3.27 -3.62,7.102 -3.62,11.497 0,4.824 1.42,9.218 4.26,13.183 2.84,3.965 6.46,7.367 10.86,10.211 4.39,2.84 9.27,4.984 14.63,6.43 5.36,1.449 10.55,2.172 15.59,2.172 3.54,0 7.24,-0.512 11.1,-1.528" /><path
         id="path50"
         style="fill:#ffffff;fill-opacity:1;fill-rule:nonzero;stroke:none"
         d="m 597.559,635.395 c 0,-2.344 1.914,-4.258 4.152,-4.258 h 42.977 c 2.132,0 3.839,1.703 3.839,3.832 0,2.129 -1.707,3.941 -3.839,3.941 h -38.719 v 63.141 c 0,2.347 -1.914,4.265 -4.258,4.265 -2.238,0 -4.152,-1.918 -4.152,-4.265 z m 105.468,47.246 c 0,2.343 -1.808,4.16 -4.047,4.16 -2.339,0 -4.042,-1.817 -4.042,-4.16 v -27.946 c 0,-10.347 -7.153,-17.277 -16.543,-17.277 -9.707,0 -15.258,6.398 -15.258,16.637 v 28.586 c 0,2.343 -1.914,4.16 -4.153,4.16 -2.343,0 -4.046,-1.817 -4.046,-4.16 v -30.614 c 0,-13.117 7.773,-22.062 21.113,-22.062 9.496,0 15.148,4.789 18.887,10.758 v -5.961 c 0,-2.348 1.808,-4.16 4.042,-4.16 2.344,0 4.047,1.921 4.047,4.16 z m 36.907,-52.786 c 9.277,0 15.57,3.622 20.796,8.84 0.641,0.641 1.067,1.602 1.067,2.563 0,1.918 -1.707,3.734 -3.734,3.734 -1.067,0 -1.813,-0.535 -2.344,-1.066 -4.055,-3.844 -9.067,-6.723 -15.36,-6.723 -11.519,0 -20.265,9.496 -20.265,21.445 v 0.211 c 0,11.844 8.531,21.34 19.73,21.34 6.614,0 11.094,-2.988 15.039,-6.613 0.641,-0.535 1.602,-0.961 2.668,-0.961 2.133,0 3.946,1.707 3.946,3.945 0,1.282 -0.641,2.348 -1.282,2.883 -4.902,4.473 -11.09,7.985 -20.261,7.985 -16.106,0 -28.254,-13.215 -28.254,-28.79 v -0.214 c 0,-15.469 12.148,-28.579 28.254,-28.579 z m 29.664,4.907 c 0,-2.348 1.808,-4.16 4.152,-4.16 2.344,0 4.047,1.812 4.047,4.16 v 10.554 l 11.41,11.305 19.094,-24.098 c 1.066,-1.386 2.027,-1.921 3.519,-1.921 2.239,0 3.946,1.601 3.946,3.839 0,1.067 -0.321,1.813 -1.067,2.774 l -19.73,24.844 18.023,17.703 c 1.067,1.066 1.602,1.918 1.602,3.199 0,2.023 -1.492,3.84 -3.735,3.84 -1.281,0 -2.238,-0.535 -3.199,-1.602 l -29.863,-30.39 v 50.546 c 0,2.243 -1.813,4.161 -4.152,4.161 -2.239,0 -4.047,-1.918 -4.047,-4.161 z m 60.898,-21.012 c 8.317,0 13.649,4.152 18.445,15.559 l 21.539,51.41 c 0.215,0.64 0.43,1.386 0.43,2.027 0,2.238 -1.812,4.055 -4.055,4.055 -2.132,0 -3.304,-1.391 -3.945,-3.094 l -17.058,-43.41 -19.196,43.301 c -0.746,1.812 -1.918,3.203 -4.156,3.203 -2.348,0 -4.16,-1.817 -4.16,-4.055 0,-0.746 0.215,-1.492 0.531,-2.238 l 23.035,-48.852 -0.429,-0.851 c -2.985,-6.723 -5.969,-9.817 -11.086,-9.817 -2.774,0 -4.375,0.43 -5.973,0.961 -0.641,0.215 -1.281,0.43 -2.027,0.43 -1.813,0 -3.52,-1.496 -3.52,-3.52 0,-1.914 1.281,-2.98 2.563,-3.511 2.769,-0.957 5.437,-1.598 9.062,-1.598 z m 92.246,16.426 c 3.199,0 5.762,0.531 8.106,1.492 1.386,0.531 2.347,1.703 2.347,3.191 0,1.918 -1.597,3.516 -3.519,3.516 -0.641,0 -2.133,-0.746 -5.012,-0.746 -5.547,0 -9.281,2.453 -9.281,9.176 v 32.222 h 14.293 c 2.027,0 3.734,1.598 3.734,3.618 0,1.918 -1.707,3.621 -3.734,3.621 h -14.293 v 13.011 c 0,2.239 -1.914,4.161 -4.153,4.161 -2.343,0 -4.046,-1.922 -4.046,-4.161 v -13.011 h -4.481 c -1.918,0 -3.625,-1.598 -3.625,-3.621 0,-1.915 1.707,-3.618 3.625,-3.618 h 4.481 v -33.289 c 0,-11.195 6.711,-15.562 15.558,-15.562 z m 41.817,-0.321 c 16.644,0 28.898,13.215 28.898,28.793 v 0.211 c 0,15.579 -12.148,28.579 -28.684,28.579 -16.644,0 -28.793,-13.215 -28.793,-28.79 v -0.214 c 0,-15.579 12.04,-28.579 28.579,-28.579 z m 0.214,7.348 c -11.628,0 -20.378,9.602 -20.378,21.445 v 0.211 c 0,11.629 8.214,21.34 20.164,21.34 11.629,0 20.484,-9.711 20.484,-21.551 v -0.214 c 0,-11.629 -8.32,-21.231 -20.27,-21.231 z m 62.717,-2.441 c 0,-2.344 1.81,-4.16 4.16,-4.16 2.34,0 4.04,1.816 4.04,4.16 v 27.945 c 0,10.348 7.04,17.277 16.54,17.277 9.71,0 15.26,-6.398 15.26,-16.636 v -28.586 c 0,-2.344 1.81,-4.16 4.15,-4.16 2.24,0 4.05,1.816 4.05,4.16 v 30.613 c 0,13.117 -7.77,22.063 -21.11,22.063 -9.5,0 -15.26,-4.79 -18.89,-10.758 v 28.675 c 0,2.243 -1.81,4.161 -4.15,4.161 -2.24,0 -4.05,-1.918 -4.05,-4.161 z m 75.72,-4.797 c 9.71,0 16.11,4.469 19.96,9.48 v -5.011 c 0,-2.125 1.59,-3.832 3.94,-3.832 2.23,0 3.93,1.707 3.93,4.054 v 30.172 c 0,7.043 -1.91,12.383 -5.64,16.113 -4.05,4.047 -10.02,6.071 -17.81,6.071 -7.05,0 -12.59,-1.383 -18.03,-3.727 -1.07,-0.426 -2.24,-1.703 -2.24,-3.406 0,-1.922 1.7,-3.524 3.62,-3.524 0.43,0 0.96,0.11 1.49,0.321 4.06,1.816 8.75,3.097 14.3,3.097 10.35,0 16.44,-5.125 16.44,-15.05 v -1.918 c -4.91,1.383 -9.93,2.343 -16.97,2.343 -13.98,0 -23.56,-6.175 -23.56,-17.8 v -0.211 c 0,-11.321 10.33,-17.172 20.57,-17.172 z m 1.6,6.492 c -7.47,0 -13.87,4.055 -13.87,10.992 v 0.211 c 0,6.938 5.76,11.422 16.11,11.422 6.73,0 12.17,-1.176 16.22,-2.348 v -5.336 c 0,-8.753 -8.32,-14.941 -18.46,-14.941 z m 62.08,-2.656 20.79,46.922 c 0.21,0.531 0.43,1.277 0.43,2.023 0,2.238 -1.82,4.055 -4.06,4.055 -2.13,0 -3.3,-1.387 -3.83,-2.988 l -18.13,-43.293 -17.81,43.082 c -0.64,1.812 -1.81,3.199 -4.16,3.199 -2.34,0 -4.16,-1.922 -4.16,-4.055 0,-0.746 0.32,-1.492 0.54,-2.238 l 20.68,-46.707 c 0.96,-2.133 2.46,-3.52 4.7,-3.52 h 0.42 c 2.24,0 3.63,1.387 4.59,3.52 z m 31.24,27.933 c 1.07,10.782 8.33,18.786 17.93,18.786 10.99,0 16.75,-8.754 17.61,-18.786 z m 40.01,-23.57 c 0.85,0.746 1.28,1.707 1.28,2.668 0,1.922 -1.6,3.523 -3.63,3.523 -0.95,0 -1.7,-0.429 -2.34,-0.96 -4.05,-3.739 -9.07,-6.407 -15.9,-6.407 -9.81,0 -18.24,6.727 -19.42,18.68 h 39.9 c 2.02,0 3.83,1.598 3.83,3.832 0,14.613 -9.26,27.938 -25.59,27.938 -15.25,0 -26.44,-12.79 -26.44,-28.684 v -0.211 c 0,-17.07 12.36,-28.688 27.51,-28.688 9.39,0 15.58,3.301 20.8,8.309 z m 62.61,-8.309 c 16.64,0 28.89,13.215 28.89,28.793 v 0.211 c 0,15.579 -12.14,28.579 -28.68,28.579 -16.65,0 -28.79,-13.215 -28.79,-28.79 v -0.214 c 0,-15.579 12.04,-28.579 28.58,-28.579 z m 0.21,7.348 c -11.63,0 -20.38,9.602 -20.38,21.445 v 0.211 c 0,11.629 8.22,21.34 20.17,21.34 11.63,0 20.48,-9.711 20.48,-21.551 v -0.214 c 0,-11.629 -8.32,-21.231 -20.27,-21.231 z m 37.12,-2.441 c 0,-2.344 1.81,-4.16 4.15,-4.16 2.35,0 4.05,1.816 4.05,4.16 v 27.945 c 0,10.348 7.04,17.277 16.54,17.277 9.71,0 15.26,-6.398 15.26,-16.636 v -28.586 c 0,-2.344 1.81,-4.16 4.15,-4.16 2.24,0 4.05,1.816 4.05,4.16 v 30.613 c 0,13.117 -7.77,22.063 -21.11,22.063 -9.5,0 -15.26,-4.79 -18.89,-10.758 v 5.961 c 0,2.343 -1.81,4.16 -4.15,4.16 -2.24,0 -4.05,-1.922 -4.05,-4.16 z m 64.2,26.972 c 1.06,10.782 8.32,18.786 17.92,18.786 10.99,0 16.75,-8.754 17.61,-18.786 z m 40,-23.57 c 0.85,0.746 1.28,1.707 1.28,2.668 0,1.922 -1.6,3.523 -3.62,3.523 -0.96,0 -1.71,-0.429 -2.35,-0.96 -4.05,-3.739 -9.06,-6.407 -15.89,-6.407 -9.82,0 -18.25,6.727 -19.42,18.68 h 39.89 c 2.03,0 3.84,1.598 3.84,3.832 0,14.613 -9.27,27.938 -25.59,27.938 -15.26,0 -26.45,-12.79 -26.45,-28.684 v -0.211 c 0,-17.07 12.36,-28.688 27.51,-28.688 9.39,0 15.58,3.301 20.8,8.309 z m 14.62,16.113 c 0.1,-1.386 1.17,-2.453 2.55,-2.453 1.28,0 2.34,1.067 2.45,2.453 l 2.45,48.414 c 0.11,1.918 -1.17,3.414 -3.09,3.414 h -3.72 c -1.81,0 -3.2,-1.496 -3.09,-3.414 z m -2.56,-16.422 v -2.132 c 0,-2.879 2.13,-5.121 5.11,-5.121 2.88,0 5.01,2.242 5.01,5.121 v 2.125 c 0,2.875 -2.13,5.007 -5.01,5.007 -2.98,0.012 -5.11,-2.121 -5.11,-5" /><path
         id="path52"
         style="fill:#ffffff;fill-opacity:1;fill-rule:nonzero;stroke:none"
         d="m 1599.18,635.652 c 20.21,0 36.15,16.43 36.15,36.047 v 0.199 c 0,19.618 -15.74,35.848 -35.95,35.848 -20.22,0 -36.15,-16.43 -36.15,-36.047 V 671.5 c 0,-19.617 15.73,-35.848 35.95,-35.848 z m 0,3.582 c -18.32,0 -32.16,14.442 -32.16,32.266 v 0.199 c 0,17.824 13.94,32.461 32.36,32.461 18.32,0 32.16,-14.437 32.16,-32.262 v -0.199 c 0,-17.824 -13.94,-32.465 -32.36,-32.465 z m -14.44,17.629 c 0,-1.992 1.59,-3.586 3.59,-3.586 1.89,0 3.58,1.594 3.58,3.586 v 10.055 h 8.07 l 9.46,-11.949 c 0.89,-1.196 1.59,-1.692 3.08,-1.692 1.8,0 3.39,1.594 3.39,3.485 0,1.097 -0.3,1.793 -1,2.492 l -7.17,8.961 c 5.08,1.691 8.37,5.476 8.37,11.25 v 0.199 c 0,3.285 -1.1,5.977 -3.09,7.969 -2.49,2.488 -6.47,3.98 -11.45,3.98 h -13.24 c -2,0 -3.59,-1.593 -3.59,-3.582 z m 7.17,16.328 v 11.95 h 9.36 c 4.68,0 7.47,-2.09 7.47,-5.875 v -0.2 c 0,-3.582 -2.79,-5.875 -7.47,-5.875 h -9.36" /></g></g></svg>